<?xml version="1.0" encoding="UTF-8"?>
<svg width="24px" height="24px" viewBox="0 0 24 24" version="1.1" xmlns="http://www.w3.org/2000/svg" xmlns:xlink="http://www.w3.org/1999/xlink">
    <!-- Generator: sketchtool 52.6 (67491) - http://www.bohemiancoding.com/sketch -->
    <title>2E56A8C1-20F2-44B0-9E7A-3B59AE61A2A0</title>
    <desc>Created with sketchtool.</desc>
    <g id="Symbols" stroke="none" stroke-width="1" fill="none" fill-rule="evenodd">
        <g id="Icon-/-Senha2">
            <g id="visibility-24px">
                <polygon id="Path" points="1 0 25 0 25 24 1 24"></polygon>
                <path d="M12.2666667,4 C7.6,4 3.61466667,6.90266667 2,11 C3.61466667,15.0973333 7.6,18 12.2666667,18 C16.9333333,18 20.9186667,15.0973333 22.5333333,11 C20.9186667,6.90266667 16.9333333,4 12.2666667,4 Z M12.2666667,15.6666667 C9.69066667,15.6666667 7.6,13.576 7.6,11 C7.6,8.424 9.69066667,6.33333333 12.2666667,6.33333333 C14.8426667,6.33333333 16.9333333,8.424 16.9333333,11 C16.9333333,13.576 14.8426667,15.6666667 12.2666667,15.6666667 Z M12.2666667,8.2 C10.7173333,8.2 9.46666667,9.45066667 9.46666667,11 C9.46666667,12.5493333 10.7173333,13.8 12.2666667,13.8 C13.816,13.8 15.0666667,12.5493333 15.0666667,11 C15.0666667,9.45066667 13.816,8.2 12.2666667,8.2 Z" id="Shape" fill="#000000" fill-rule="nonzero"></path>
            </g>
        </g>
    </g>
</svg>