<?xml version="1.0" encoding="UTF-8"?>
<svg width="24px" height="24px" viewBox="0 0 24 24" version="1.1" xmlns="http://www.w3.org/2000/svg" xmlns:xlink="http://www.w3.org/1999/xlink">
    <!-- Generator: sketchtool 52.6 (67491) - http://www.bohemiancoding.com/sketch -->
    <title>386E75BD-4583-4AD7-B684-3458E50767B8</title>
    <desc>Created with sketchtool.</desc>
    <g id="Symbols" stroke="none" stroke-width="1" fill="none" fill-rule="evenodd">
        <g id="Icon-/-Senha" fill="#B8B8B8" fill-rule="nonzero">
            <path d="M12.0045475,6.63801728 C14.5147794,6.63801728 16.5520691,8.67530696 16.5520691,11.1855389 C16.5520691,11.7767167 16.4338336,12.3315143 16.2246476,12.8499318 L18.8804002,15.5056844 C20.2537517,14.359709 21.3360618,12.8772169 22,11.1855389 C20.4265575,7.19281492 16.5429741,4.36425648 11.9954525,4.36425648 C10.7221464,4.36425648 9.50341064,4.59163256 8.37562528,5.0009095 L10.3401546,6.96543884 C10.8585721,6.75625284 11.4133697,6.63801728 12.0045475,6.63801728 Z M2.90950432,4.15507049 L4.98317417,6.22874034 L5.40154616,6.64711232 C3.89176899,7.8203729 2.70941337,9.38472033 2,11.1855389 C3.57344247,15.1782628 7.45702592,18.0068213 12.0045475,18.0068213 C13.4142792,18.0068213 14.7603456,17.73397 15.9881764,17.2428377 L16.3701683,17.6248295 L19.0350159,20.2805821 L20.1900864,19.1255116 L4.06457481,3 L2.90950432,4.15507049 Z M7.93906321,9.18462938 L9.34879491,10.5943611 C9.30331969,10.785357 9.27603456,10.9854479 9.27603456,11.1855389 C9.27603456,12.6953161 10.4947704,13.9140518 12.0045475,13.9140518 C12.2046385,13.9140518 12.4047294,13.8867667 12.5957253,13.8412915 L14.005457,15.2510232 C13.3960891,15.5511596 12.7230559,15.7330605 12.0045475,15.7330605 C9.4943156,15.7330605 7.45702592,13.6957708 7.45702592,11.1855389 C7.45702592,10.4670305 7.63892678,9.79399727 7.93906321,9.18462938 Z M11.8590268,8.47521601 L14.7239654,11.3401546 L14.7421555,11.1946339 C14.7421555,9.68485675 13.5234197,8.46612096 12.0136426,8.46612096 L11.8590268,8.47521601 Z" id="Shape"></path>
        </g>
    </g>
</svg>