<?xml version="1.0" encoding="UTF-8"?>
<svg width="104px" height="58px" viewBox="0 0 104 58" version="1.1" xmlns="http://www.w3.org/2000/svg" xmlns:xlink="http://www.w3.org/1999/xlink">
    <!-- Generator: sketchtool 52.6 (67491) - http://www.bohemiancoding.com/sketch -->
    <title>7D627758-4993-4F26-B931-951D8FEC4FB4</title>
    <desc>Created with sketchtool.</desc>
    <defs>
        <polygon id="path-1" points="0.5925 0.168851064 24.4668243 0.168851064 24.4668243 30.8876745 0.5925 30.8876745"></polygon>
    </defs>
    <g id="Symbols" stroke="none" stroke-width="1" fill="none" fill-rule="evenodd">
        <g id="Logo_FutureEats_invert">
            <g id="Group-14" transform="translate(0.000000, 12.000000)">
                <path d="M26.7610557,6.10309772 C26.7610557,5.70901816 26.5181126,5.40066585 26.0322263,5.17870536 C25.5463401,4.95674487 24.9393098,4.79060677 24.2098256,4.67962652 C23.4816512,4.56864628 22.685374,4.51282388 21.8236136,4.51282388 C20.9611983,4.51282388 20.1413472,4.52611492 19.3640602,4.55003881 C18.6110021,5.70901816 17.747932,7.2002737 16.7768144,9.02446998 C15.8056968,10.8493308 14.8457114,12.8336842 13.8981678,14.9781947 C15.6472272,14.6824689 17.2993713,14.1960166 18.8539452,13.5175086 C20.4085191,12.8403297 21.7751559,12.0754299 22.9538556,11.2248029 C24.1312457,10.3748404 25.0604539,9.49962493 25.7408256,8.59982101 C26.4205424,7.69935253 26.7610557,6.86733296 26.7610557,6.10309772 M14.4449535,20.0447421 C15.027755,20.9571725 15.7323555,21.8809003 16.558755,22.8172546 C17.3844996,23.754938 18.3438302,24.598255 19.4367467,25.3511928 C20.5296633,26.1028016 21.7627141,26.7188416 23.1352444,27.1999775 C24.5077747,27.6804489 26.0440133,27.9210169 27.7446151,27.9210169 C27.5992421,28.6845876 27.2770642,29.4056269 26.779391,30.0841349 C26.2810629,30.7613137 25.6498038,31.2730191 24.8849586,31.6192509 C24.1194587,31.963489 23.2321597,32.0744692 22.2243715,31.9515271 C21.2159284,31.8279203 20.1472407,31.3534299 19.0183083,30.5280559 C17.8880663,29.7020173 16.7041279,28.4573106 15.4651836,26.7932715 C14.2262392,25.1292323 12.9879497,22.9282349 11.7483505,20.1922727 C11.310922,21.3266636 10.9226059,22.448428 10.5827475,23.557566 C10.2415794,24.6667039 9.96327534,25.7260004 9.74456106,26.7374491 C9.52584678,27.7475687 9.37392549,28.6972141 9.28879718,29.585056 C9.20366887,30.4722335 9.20956236,31.2610571 9.30778734,31.9515271 C8.84547513,31.9515271 8.34714709,31.8830782 7.81280323,31.748174 C7.27845936,31.6126053 6.78013133,31.3780184 6.31912878,31.0457422 C5.8574714,30.7128014 5.47504883,30.2688804 5.17120624,29.7139792 C4.86736366,29.1597425 4.71609719,28.4752536 4.71609719,27.6618414 C4.71609719,26.552039 4.9649338,25.2216051 5.46326183,23.6685462 C5.96028021,22.1154873 6.59808771,20.4634101 7.37602951,18.7136437 C6.69565785,18.2451342 6.16131399,17.6470371 5.77234309,16.9193522 C5.38337219,16.1929965 5.19019641,15.3363885 5.19019641,14.3495282 C6.45205991,14.7688607 7.7767874,15.0399981 9.16175954,15.1636049 C9.69544857,14.1275677 10.2913468,13.1048216 10.9474896,12.0940374 C11.6029776,11.0832532 12.2591204,10.109684 12.9146084,9.17266516 C13.5700964,8.23631086 14.2137974,7.37305732 14.8457114,6.58423364 C15.4776254,5.79540997 16.0355433,5.10494005 16.5220843,4.51282388 C15.161341,4.58725374 13.6918954,4.82184073 12.1130926,5.21592029 C10.533635,5.61066441 9.01573175,6.17154661 7.55807313,6.89790236 C6.1004145,7.62558722 4.79467717,8.5134292 3.64086114,9.56076375 C2.48769994,10.6087628 1.67963581,11.8109381 1.21797843,13.166625 C0.270434845,11.5391362 -0.124429552,10.109684 0.0340400733,8.87693935 C0.192509699,7.64419469 0.707863399,6.57825267 1.58272051,5.6777842 C2.45692278,4.77864483 3.59895182,4.02703609 5.00749795,3.42229342 C6.41604409,2.81887986 7.89203804,2.33774394 9.43482497,1.98021476 C10.9769571,1.62335013 12.4955152,1.37015568 13.9891896,1.22196049 C15.4835189,1.07442987 16.7643726,1 17.8337151,1 C19.2180324,1 20.5244246,1.07442987 21.7509271,1.22196049 C22.9774296,1.37015568 24.0520109,1.64727402 24.9753256,2.05398007 C25.8986404,2.46135068 26.634018,3.02821386 27.1801489,3.75523416 C27.7269346,4.48291902 28,5.43788079 28,6.62078402 C28,8.39580343 27.5933486,10.0598426 26.779391,11.6129015 C25.9647785,13.166625 24.9085326,14.5349383 23.6093436,15.7178415 C22.3094998,16.9014093 20.8518412,17.8689976 19.2370226,18.6206063 C17.6208944,19.3728796 16.0244111,19.84737 14.4449535,20.0447421" id="Fill-1" fill="#E86E5A"></path>
                <path d="M41.2871768,20.1918819 C40.8129577,20.6648776 40.3451278,21.131164 39.884397,21.5920832 C39.4236661,22.0523314 39.0019803,22.4568937 38.6207592,22.8057699 C38.2388283,23.1539752 37.9158198,23.4397853 37.6531535,23.6638712 C37.3897773,23.8879571 37.2186893,24 37.1391795,24 C36.7707368,24 36.4150725,23.9315666 36.0728964,23.7946998 C35.7307204,23.6578329 35.4148109,23.4833948 35.1244582,23.2720564 C34.8348154,23.0607179 34.604805,22.8238846 34.4337169,22.5622274 C34.261919,22.3012412 34.1767299,22.0462932 34.1767299,21.7973834 C34.1767299,21.4236833 34.2888955,21.0318685 34.5125168,20.621268 C34.7354282,20.2106676 34.9725377,19.8316001 35.2238455,19.482053 C35.4737334,19.1345186 35.6909655,18.8419993 35.8755418,18.6051661 C36.0594082,18.3690037 36.1126513,18.2502516 36.0338514,18.2502516 C35.9543417,18.2502516 35.6781871,18.4501845 35.203968,18.8480376 C34.7297489,19.2465616 34.1703408,19.7376719 33.5243237,20.3220396 C32.8790166,20.9070782 32.2145419,21.529688 31.5301898,22.1891983 C30.8451278,22.8487085 30.2523539,23.4525327 29.7525781,24 C29.5680018,24 29.2641608,23.975847 28.8438948,23.9248574 C28.4222089,23.8752097 28.0005231,23.7571285 27.5795472,23.5706139 C27.1592811,23.3840993 26.7894186,23.1224421 26.4735092,22.7863133 C26.1575998,22.4501845 26,21.983898 26,21.386112 C26,20.8641396 26.1185548,20.2167058 26.3556643,19.4451526 C26.592064,18.6735995 26.9278508,17.8711842 27.363025,17.0372358 C27.7967793,16.2039584 28.3107533,15.3639718 28.9035271,14.5172761 C29.4955911,13.6712513 30.1536766,12.9184837 30.8784935,12.2589735 C31.6018906,11.5994633 32.3657525,11.0580342 33.1693693,10.6346863 C33.9722762,10.2120094 34.7950605,10 35.6384322,10 C35.9010985,10 36.2368854,10.0563569 36.6457929,10.1683999 C37.0532805,10.2804428 37.4486997,10.45421 37.8306307,10.6910433 C38.2118517,10.9272056 38.5419593,11.2197249 38.8181139,11.5679302 C39.0949783,11.9168064 39.2327006,12.3146595 39.2327006,12.7628313 C39.2327006,13.1613552 39.2000448,13.5035223 39.1347332,13.7893324 C39.0680018,14.0758135 39.0090794,14.3180141 38.9565461,14.5172761 C38.8507697,14.7661858 38.7584815,14.9781952 38.6796817,15.1519624 L37.6531535,14.7037907 C37.7837767,14.2804428 37.8370199,13.8953371 37.8114632,13.5471318 C37.7837767,13.2727273 37.6858093,13.011741 37.5147213,12.7628313 C37.3429233,12.5145924 37.034113,12.3891312 36.5861605,12.3891312 C36.0338514,12.3891312 35.4737334,12.613217 34.907936,13.0613888 C34.3407189,13.5095606 33.7940891,14.0758135 33.2680466,14.7594767 C32.7412943,15.4451526 32.2535869,16.1791345 31.8070543,16.9627642 C31.3583919,17.7463938 30.9899492,18.4810466 30.7003064,19.1653807 C30.4106636,19.8497149 30.2196981,20.4159678 30.12741,20.8641396 C30.0351218,21.3116404 30.0812659,21.5357263 30.2665521,21.5357263 C30.555485,21.187521 31.0297041,20.7024488 31.6884995,20.079839 C32.3458751,19.4579 33.0444253,18.8359611 33.7820206,18.2133512 C34.518906,17.5914123 35.2167464,17.0560215 35.8755418,16.6078497 C36.5336273,16.159678 37.0206247,15.9355921 37.3372441,15.9355921 C37.6268869,15.9355921 37.9023315,15.9986582 38.1664176,16.1227776 C38.4297938,16.2475679 38.6669033,16.3971822 38.8770363,16.5709493 C39.0878792,16.7447165 39.253288,16.9439785 39.3711329,17.1680644 C39.4896876,17.3921503 39.54932,17.5914123 39.54932,17.7651795 C39.54932,17.9892653 39.416567,18.3066085 39.1539008,18.717209 C38.8905246,19.1278095 38.6008818,19.5511573 38.2849724,19.9865817 C37.9690629,20.422677 37.6858093,20.82053 37.4352115,21.1814827 C37.1853236,21.5424354 37.0866462,21.7725595 37.1391795,21.8718551 L42.7879241,16.3837638 L45,16.3837638 C43.6312958,17.8020798 42.3932148,19.0721234 41.2871768,20.1918819" id="Fill-3" fill="#E86E5A"></path>
                <path d="M60,16.4060177 C59.9479934,16.4060177 59.9230303,16.4309255 59.9230303,16.4807411 L57.4530641,18.9533454 C57.3760943,19.028742 57.1958048,19.2030966 56.912889,19.4770825 C56.6299731,19.7530879 56.2631533,20.0768893 55.813123,20.4518527 C55.3630927,20.8261429 54.8485742,21.2260142 54.2695675,21.65012 C53.6905608,22.0755722 53.0803502,22.4619797 52.4375488,22.8120354 C51.7940539,23.1614178 51.1380775,23.4549259 50.4696195,23.6918867 C49.7997746,23.9295206 49.1444916,24.0480009 48.5016902,24.0480009 L48.4628586,24.0480009 C47.716044,24.0480009 47.1120742,23.9227887 46.6495623,23.6730375 C46.1863569,23.4239595 45.8132964,23.1486273 45.5303805,22.8490605 C45.2218081,22.499678 44.9902054,22.0998068 44.8355725,21.65012 C45.4527173,21.65012 46.1537661,21.4071006 46.9387189,20.9197155 C47.7229782,20.4323304 48.5016902,19.8210794 49.2727746,19.0846163 C50.0452457,18.3481531 50.7774985,17.5484107 51.4723065,16.6867354 C52.1671145,15.8257332 52.7454278,15.0266639 53.2086331,14.2895276 C53.6718384,13.5537376 53.9672358,12.9411403 54.0962122,12.4544284 C54.2244951,11.9670433 54.1211753,11.7240239 53.7876398,11.7240239 C53.4270608,11.7240239 52.9381988,11.9609846 52.3217474,12.4355792 C51.7039092,12.9101739 51.0153419,13.540274 50.2567392,14.3272259 C49.497443,15.1135047 48.7000087,16.0000878 47.8644362,16.9863022 C47.0288637,17.9731897 46.2182543,18.9910437 45.433995,20.039191 C44.6483488,21.0886847 43.9223368,22.118656 43.2538788,23.1297781 C42.5847274,24.1409003 42.0320707,25.0463326 41.594522,25.8454019 C41.0806969,27.3190013 40.6944613,28.6795059 40.437202,29.9289352 C40.1799428,31.1770181 40.1542862,32.2009307 40.3602323,33 C39.7944006,33 39.2472913,32.9629749 38.7202912,32.8875783 C38.1932912,32.8128549 37.7300858,32.6687935 37.3313686,32.4574138 C36.931958,32.2446877 36.6115975,31.9451209 36.3661264,31.5587133 C36.1220421,31.1709594 36,30.6775157 36,30.0790552 C36,29.404525 36.2378435,28.4425452 36.7135304,27.1937891 C37.1899107,25.9450331 37.8001213,24.5724112 38.5469359,23.0739039 C39.2930571,21.5753966 40.1036665,20.0587133 40.9766837,18.5225078 C41.8517812,16.9863022 42.6942879,15.5813674 43.5048973,14.3083767 C44.3148132,13.0347129 45.0221028,11.9986829 45.6267661,11.1996137 C46.2314293,10.4005444 46.6363873,10 46.8416399,10 C46.9449597,10 47.1058334,10.0565474 47.3249545,10.1689692 C47.5426887,10.2813909 47.7618098,10.4187204 47.9802375,10.5816309 C48.1986652,10.7438682 48.3921297,10.9310133 48.5592442,11.1430662 C48.7263587,11.3557923 48.8095692,11.5617866 48.8095692,11.761049 C48.1404178,12.7600539 47.4407558,13.9091787 46.7071162,15.2077504 C45.9734766,16.5056489 45.2342897,17.8668267 44.4888619,19.2906105 L45.336916,18.2417901 C45.5948687,17.8176842 45.9415793,17.3235673 46.379128,16.7614588 C46.8159834,16.2000234 47.2986045,15.6136803 47.8256046,15.0010829 C48.3532981,14.389832 48.9066482,13.7832933 49.4856548,13.1848329 C50.0639681,12.585026 50.6242524,12.0484985 51.1637341,11.5739039 C51.7039092,11.0993093 52.2059461,10.7189604 52.668458,10.4315109 C53.1316633,10.1440613 53.5172055,10 53.8264714,10 C54.0830372,10 54.379128,10.0632793 54.713357,10.1878183 C55.047586,10.3130305 55.3630927,10.4813265 55.6584901,10.6940526 C55.9545809,10.9061055 56.204906,11.1619154 56.4115455,11.4614822 C56.6167981,11.761049 56.7201179,12.0983141 56.7201179,12.4726043 C56.7201179,12.8973834 56.6167981,13.4278523 56.4115455,14.0646842 C56.204906,14.7015161 55.9289243,15.382105 55.5815203,16.1064509 C55.2348097,16.8307967 54.8353992,17.5733185 54.3853688,18.3353626 C53.9353385,19.0974068 53.4534108,19.8143476 52.9381988,20.4888778 C52.7065962,20.8140256 52.6809396,20.9331792 52.8612291,20.8449921 C53.0415186,20.7581514 53.2918436,20.5959141 53.6135911,20.357607 C53.9353385,20.1213194 54.2508451,19.870895 54.5594175,19.6090265 C54.8679899,19.3464848 55.0351044,19.1909793 55.060761,19.1404905 L57.8392996,16.4060177 L60,16.4060177 Z" id="Fill-5" fill="#E86E5A"></path>
                <path d="M75,16.4060177 C74.9479934,16.4060177 74.9230303,16.4309255 74.9230303,16.4807411 L72.4530641,18.9533454 C72.3760943,19.028742 72.1958048,19.2030966 71.912889,19.4770825 C71.6299731,19.7530879 71.2631533,20.0768893 70.813123,20.4518527 C70.3630927,20.8261429 69.8485742,21.2260142 69.2695675,21.65012 C68.6905608,22.0755722 68.0803502,22.4619797 67.4375488,22.8120354 C66.7940539,23.1614178 66.1380775,23.4549259 65.4696195,23.6918867 C64.7997746,23.9295206 64.1444916,24.0480009 63.5016902,24.0480009 L63.4628586,24.0480009 C62.716044,24.0480009 62.1120742,23.9227887 61.6495623,23.6730375 C61.1863569,23.4239595 60.8132964,23.1486273 60.5303805,22.8490605 C60.2218081,22.499678 59.9902054,22.0998068 59.8355725,21.65012 C60.4527173,21.65012 61.1537661,21.4071006 61.9387189,20.9197155 C62.7229782,20.4323304 63.5016902,19.8210794 64.2727746,19.0846163 C65.0452457,18.3481531 65.7774985,17.5484107 66.4723065,16.6867354 C67.1671145,15.8257332 67.7454278,15.0266639 68.2086331,14.2895276 C68.6718384,13.5537376 68.9672358,12.9411403 69.0962122,12.4544284 C69.2244951,11.9670433 69.1211753,11.7240239 68.7876398,11.7240239 C68.4270608,11.7240239 67.9381988,11.9609846 67.3217474,12.4355792 C66.7039092,12.9101739 66.0153419,13.540274 65.2567392,14.3272259 C64.497443,15.1135047 63.7000087,16.0000878 62.8644362,16.9863022 C62.0288637,17.9731897 61.2182543,18.9910437 60.433995,20.039191 C59.6483488,21.0886847 58.9223368,22.118656 58.2538788,23.1297781 C57.5847274,24.1409003 57.0320707,25.0463326 56.594522,25.8454019 C56.0806969,27.3190013 55.6944613,28.6795059 55.437202,29.9289352 C55.1799428,31.1770181 55.1542862,32.2009307 55.3602323,33 C54.7944006,33 54.2472913,32.9629749 53.7202912,32.8875783 C53.1932912,32.8128549 52.7300858,32.6687935 52.3313686,32.4574138 C51.931958,32.2446877 51.6115975,31.9451209 51.3661264,31.5587133 C51.1220421,31.1709594 51,30.6775157 51,30.0790552 C51,29.404525 51.2378435,28.4425452 51.7135304,27.1937891 C52.1899107,25.9450331 52.8001213,24.5724112 53.5469359,23.0739039 C54.2930571,21.5753966 55.1036665,20.0587133 55.9766837,18.5225078 C56.8517812,16.9863022 57.6942879,15.5813674 58.5048973,14.3083767 C59.3148132,13.0347129 60.0221028,11.9986829 60.6267661,11.1996137 C61.2314293,10.4005444 61.6363873,10 61.8416399,10 C61.9449597,10 62.1058334,10.0565474 62.3249545,10.1689692 C62.5426887,10.2813909 62.7618098,10.4187204 62.9802375,10.5816309 C63.1986652,10.7438682 63.3921297,10.9310133 63.5592442,11.1430662 C63.7263587,11.3557923 63.8095692,11.5617866 63.8095692,11.761049 C63.1404178,12.7600539 62.4407558,13.9091787 61.7071162,15.2077504 C60.9734766,16.5056489 60.2342897,17.8668267 59.4888619,19.2906105 L60.336916,18.2417901 C60.5948687,17.8176842 60.9415793,17.3235673 61.379128,16.7614588 C61.8159834,16.2000234 62.2986045,15.6136803 62.8256046,15.0010829 C63.3532981,14.389832 63.9066482,13.7832933 64.4856548,13.1848329 C65.0639681,12.585026 65.6242524,12.0484985 66.1637341,11.5739039 C66.7039092,11.0993093 67.2059461,10.7189604 67.668458,10.4315109 C68.1316633,10.1440613 68.5172055,10 68.8264714,10 C69.0830372,10 69.379128,10.0632793 69.713357,10.1878183 C70.047586,10.3130305 70.3630927,10.4813265 70.6584901,10.6940526 C70.9545809,10.9061055 71.204906,11.1619154 71.4115455,11.4614822 C71.6167981,11.761049 71.7201179,12.0983141 71.7201179,12.4726043 C71.7201179,12.8973834 71.6167981,13.4278523 71.4115455,14.0646842 C71.204906,14.7015161 70.9289243,15.382105 70.5815203,16.1064509 C70.2348097,16.8307967 69.8353992,17.5733185 69.3853688,18.3353626 C68.9353385,19.0974068 68.4534108,19.8143476 67.9381988,20.4888778 C67.7065962,20.8140256 67.6809396,20.9331792 67.8612291,20.8449921 C68.0415186,20.7581514 68.2918436,20.5959141 68.6135911,20.357607 C68.9353385,20.1213194 69.2508451,19.870895 69.5594175,19.6090265 C69.8679899,19.3464848 70.0351044,19.1909793 70.060761,19.1404905 L72.8392996,16.4060177 L75,16.4060177 Z" id="Fill-7" fill="#E86E5A"></path>
                <path d="M80.773025,8.93136213 C80.6812608,8.93136213 80.4811041,8.85602573 80.1725547,8.70467422 C79.8646212,8.55332271 79.5443704,8.38364613 79.2136499,8.19496577 C78.8823134,8.00628541 78.5848497,7.83050047 78.3224903,7.66625354 C78.0595151,7.50268532 77.9283355,7.40834514 77.9283355,7.383233 C77.9283355,7.35812087 78.0083982,7.11242918 78.1685236,6.64683664 C78.3274173,6.18056539 78.5109456,5.62674103 78.7166452,4.98468484 C78.9223448,4.34262866 79.1163429,3.66256492 79.2986395,2.94585104 C79.481552,2.22777975 79.5961032,1.5796152 79.6416774,1 C79.8695482,1 80.1780975,1.07601511 80.5673255,1.22668791 C80.9553217,1.37803942 81.3260736,1.5796152 81.6814288,1.83141525 C82.0349365,2.0832153 82.3434858,2.37913126 82.606461,2.71916313 C82.8682045,3.05851629 83,3.43044736 83,3.83292021 C83,4.23607177 82.902693,4.72677644 82.7093108,5.30571294 C82.5146968,5.88532814 82.2862102,6.44526086 82.023235,6.9861898 C81.7608757,7.52847616 81.5096019,7.98660293 81.2700297,8.36464235 C81.0298416,8.74268178 80.8635575,8.93136213 80.773025,8.93136213 Z M80.3961144,16.2960045 L82.3151559,16.2960045 C81.1955098,17.7307897 80.1780975,19.014902 79.2647668,20.1476629 C78.8761548,20.6261508 78.4819999,21.0985305 78.0829181,21.564123 C77.6826046,22.0303942 77.3118526,22.4389754 76.9688147,22.7919027 C76.6263927,23.1441513 76.3227703,23.4332802 76.0610268,23.6599681 C75.7980516,23.886656 75.6089805,24 75.4956609,24 C74.8785622,24 74.347069,23.9056598 73.9017972,23.7169795 C73.4559095,23.5282991 73.0962432,23.2955028 72.8221824,23.0185907 C72.5481216,22.7416785 72.342422,22.4640876 72.2050837,22.1871754 C72.0683612,21.9102632 72,21.6713586 72,21.4697828 C72,20.7652856 72.1422653,19.9026499 72.4280275,18.8825543 C72.7137898,17.8631374 73.0845417,16.8118213 73.5421309,15.7292847 C73.9984883,14.6474268 74.5127372,13.5893237 75.0842618,12.5570113 C75.6545546,11.524699 76.2260792,10.6179474 76.7976037,9.83743508 C77.0716645,9.83743508 77.3685124,9.88833805 77.6881474,9.98878659 C78.0083982,10.0899138 78.3052461,10.2215829 78.5793069,10.3858298 C78.8539835,10.549398 79.088013,10.7441867 79.2820111,10.9708746 C79.4760092,11.1975626 79.5733162,11.4364672 79.5733162,11.6882672 C78.6821567,12.9974917 77.9338783,14.32572 77.328481,15.6729521 C76.7230838,17.0195054 76.2667264,18.1970609 75.958177,19.2042611 C75.6496277,20.2107826 75.5122893,20.9471789 75.5467779,21.4134502 C75.5806506,21.8790427 75.791893,21.8851511 76.180505,21.4317753 L80.3961144,16.2960045 Z" id="Fill-9" fill="#E86E5A"></path>
                <g id="Group-13" transform="translate(79.000000, 0.000000)">
                    <mask id="mask-2" fill="white">
                        <use xlink:href="#path-1"></use>
                    </mask>
                    <g id="Clip-12"></g>
                    <path d="M24.4668243,2.37031277 C24.065473,2.8603766 23.5830405,3.55161064 23.019527,4.44467447 C22.4553378,5.3377383 21.8539865,6.35941915 21.215473,7.50905745 C20.5756081,8.65935532 19.9114189,9.91320638 19.2222297,11.2706106 C18.5323649,12.6286745 17.8681757,14.0236745 17.2296622,15.4549511 C16.590473,16.8862277 15.994527,18.3300362 15.4438514,19.785717 C14.8918243,21.2413979 14.4289865,22.642334 14.0526351,23.987866 C13.6762838,25.3327383 13.4006081,26.5991213 13.2249324,27.7863553 C13.0499324,28.9729298 13.0242568,30.0071426 13.1499324,30.8876745 C12.6735811,30.8876745 12.1593919,30.8144617 11.6087162,30.6673766 C11.0566892,30.5209511 10.5431757,30.2821851 10.0668243,29.9517383 C9.59047297,29.6212915 9.19587838,29.1806957 8.88304054,28.6306106 C8.56952703,28.079866 8.41277027,27.4011638 8.41277027,26.5938447 C8.41277027,25.9573553 8.51277027,25.2179723 8.71412162,24.3730574 C8.91344595,23.5294617 9.1897973,22.6179298 9.54047297,21.6391213 C8.88844595,21.7618021 8.09858108,21.8712915 7.17222973,21.9695681 C6.24452703,22.0671851 5.17966216,22.1159936 3.97628378,22.1159936 C3.80060811,22.1159936 3.52493243,22.0183766 3.14925676,21.822483 C2.77358108,21.6265894 2.39722973,21.3396745 2.02087838,20.9604191 C1.6452027,20.5805043 1.31277027,20.1286957 1.02493243,19.6023553 C0.736418919,19.0760149 0.5925,18.4830574 0.5925,17.8221638 C0.5925,17.3578234 0.856013514,16.6421851 1.38236486,15.6752489 C1.90804054,14.7089723 2.57222973,13.6259511 3.37493243,12.4268447 C4.17695946,11.2283979 5.06006757,9.98048298 6.02560811,8.6831 C6.99047297,7.3863766 7.9175,6.16352553 8.80736486,5.01322766 C9.69722973,3.86358936 10.4870946,2.85378085 11.1762838,1.98512128 C11.865473,1.11712128 12.3357432,0.511631915 12.5864189,0.168653191 C12.9620946,0.168653191 13.3506081,0.247802128 13.7519595,0.406759574 C14.1519595,0.56703617 14.5100676,0.749738298 14.8235811,0.957504255 C15.1364189,1.16592979 15.3931757,1.38622766 15.5938514,1.6177383 C15.794527,1.85122766 15.894527,2.04052553 15.894527,2.18761064 C14.2647973,4.21844043 12.7681757,6.21827021 11.4019595,8.18775957 C10.0357432,10.1579085 8.86412162,11.9255681 7.88641892,13.4907383 C6.90939189,15.0572277 6.14385135,16.3539511 5.5925,17.3815681 C5.04114865,18.4091851 4.76614865,19.0093979 4.76614865,19.1795681 C4.76614865,19.351717 4.92831081,19.461866 5.25466216,19.5100149 C5.58033784,19.5601426 6.00668919,19.5713553 6.53304054,19.5469511 C7.05939189,19.5232064 7.66074324,19.4922064 8.33777027,19.4552702 C9.0147973,19.4189936 9.71614865,19.399866 10.4431757,19.399866 C11.044527,18.0299298 11.7215541,16.6052489 12.4735811,15.1245043 C13.2249324,13.6444191 14.0080405,12.2065468 14.8235811,10.8122064 C15.6377703,9.41786596 16.4397973,8.09607872 17.2296622,6.84816383 C18.0188514,5.60024894 18.7391216,4.51195106 19.3911486,3.58195106 C20.0425,2.65261064 20.5999324,1.91190851 21.0647973,1.36116383 C21.5276351,0.811078723 21.8350676,0.535376596 21.9857432,0.535376596 C22.3114189,0.535376596 22.6242568,0.597376596 22.9256081,0.718738298 C23.2262838,0.842078723 23.4897973,0.994440426 23.715473,1.17780213 C23.9411486,1.36116383 24.1222297,1.56299362 24.2600676,1.78329149 C24.3972297,2.00358936 24.4668243,2.19948298 24.4668243,2.37031277" id="Fill-11" fill="#E86E5A" mask="url(#mask-2)"></path>
                </g>
            </g>
        </g>
    </g>
</svg>